<svg xmlns="http://www.w3.org/2000/svg" version="1.1" xmlns:xlink="http://www.w3.org/1999/xlink" xmlns:svgjs="http://svgjs.com/svgjs" width="1440" height="560" preserveAspectRatio="none" viewBox="0 0 1440 560"><g mask="url(&quot;#SvgjsMask1006&quot;)" fill="none"><rect width="1440" height="560" x="0" y="0" fill="url(#SvgjsLinearGradient1007)"></rect><path d="M -606.4249760266474,467 C -510.42,421.6 -318.42,240 -126.42497602664744,240 C 65.58,240 161.58,468.2 353.5750239733526,467 C 545.58,465.8 641.58,246 833.5750239733526,234 C 1025.58,222 1192.29,437.2 1313.5750239733525,407 C 1434.86,376.8 1414.72,147.8 1440,83" stroke="rgba(51, 121, 194, 0.58)" stroke-width="2"></path><path d="M -617.8041882156735,227 C -521.8,242.4 -329.8,338.2 -137.8041882156735,304 C 54.2,269.8 150.2,39 342.1958117843265,56 C 534.2,73 630.2,371.2 822.1958117843265,389 C 1014.2,406.8 1178.63,129.2 1302.1958117843265,145 C 1425.76,160.8 1412.44,403.4 1440,468" stroke="rgba(51, 121, 194, 0.58)" stroke-width="2"></path><path d="M -951.2249897990289,151 C -855.22,215.2 -663.22,490.6 -471.22498979902895,472 C -279.22,453.4 -183.22,78.8 8.775010200971053,58 C 200.78,37.2 296.78,341.6 488.77501020097105,368 C 680.78,394.4 778.53,195.4 968.7750102009711,190 C 1159.02,184.6 1345.76,310.8 1440,341" stroke="rgba(51, 121, 194, 0.58)" stroke-width="2"></path><path d="M -256.05712317575814,297 C -160.06,257.2 31.94,95 223.94287682424186,98 C 415.94,101 511.94,307.2 703.9428768242419,312 C 895.94,316.8 991.94,99.8 1183.942876824242,122 C 1375.94,144.2 1612.73,400.4 1663.942876824242,423 C 1715.15,445.6 1484.79,272.6 1440,235" stroke="rgba(51, 121, 194, 0.58)" stroke-width="2"></path></g><defs><mask id="SvgjsMask1006"><rect width="1440" height="560" fill="#ffffff"></rect></mask><linearGradient x1="15.28%" y1="-39.29%" x2="84.72%" y2="139.29%" gradientUnits="userSpaceOnUse" id="SvgjsLinearGradient1007"><stop stop-color="#0e2a47" offset="0"></stop><stop stop-color="rgba(13, 13, 43, 1)" offset="1"></stop></linearGradient></defs></svg>